<?xml version="1.0" encoding="UTF-8" standalone="no"?>
<svg
   id="Layer_1"
   height="512"
   viewBox="0 0 24 24"
   width="512"
   data-name="Layer 1"
   version="1.1"
   sodipodi:docname="add.svg"
   inkscape:version="1.4.3 (0d15f75042, 2025-12-25)"
   xmlns:inkscape="http://www.inkscape.org/namespaces/inkscape"
   xmlns:sodipodi="http://sodipodi.sourceforge.net/DTD/sodipodi-0.dtd"
   xmlns="http://www.w3.org/2000/svg"
   xmlns:svg="http://www.w3.org/2000/svg">
  <defs
     id="defs1" />
  <sodipodi:namedview
     id="namedview1"
     pagecolor="#505050"
     bordercolor="#eeeeee"
     borderopacity="1"
     inkscape:showpageshadow="0"
     inkscape:pageopacity="0"
     inkscape:pagecheckerboard="0"
     inkscape:deskcolor="#505050"
     inkscape:zoom="1.5703125"
     inkscape:cx="256"
     inkscape:cy="255.36318"
     inkscape:window-width="1920"
     inkscape:window-height="1013"
     inkscape:window-x="0"
     inkscape:window-y="0"
     inkscape:window-maximized="1"
     inkscape:current-layer="Layer_1" />
  <path
     d="m12 0a12 12 0 1 0 12 12 12.013 12.013 0 0 0 -12-12zm0 22a10 10 0 1 1 10-10 10.011 10.011 0 0 1 -10 10zm5-10a1 1 0 0 1 -1 1h-3v3a1 1 0 0 1 -2 0v-3h-3a1 1 0 0 1 0-2h3v-3a1 1 0 0 1 2 0v3h3a1 1 0 0 1 1 1z"
     id="path1"
     style="fill:#faebd7;fill-opacity:1" />
</svg>
