<?xml version="1.0" encoding="UTF-8" standalone="no"?>
<svg
   id="Layer_1"
   height="512"
   viewBox="0 0 24 24"
   width="512"
   data-name="Layer 1"
   version="1.1"
   sodipodi:docname="copy.svg"
   inkscape:version="1.4.3 (0d15f75042, 2025-12-25)"
   xmlns:inkscape="http://www.inkscape.org/namespaces/inkscape"
   xmlns:sodipodi="http://sodipodi.sourceforge.net/DTD/sodipodi-0.dtd"
   xmlns="http://www.w3.org/2000/svg"
   xmlns:svg="http://www.w3.org/2000/svg">
  <defs
     id="defs1" />
  <sodipodi:namedview
     id="namedview1"
     pagecolor="#505050"
     bordercolor="#eeeeee"
     borderopacity="1"
     inkscape:showpageshadow="0"
     inkscape:pageopacity="0"
     inkscape:pagecheckerboard="0"
     inkscape:deskcolor="#505050"
     inkscape:zoom="1.5703125"
     inkscape:cx="256"
     inkscape:cy="256"
     inkscape:window-width="1920"
     inkscape:window-height="1013"
     inkscape:window-x="0"
     inkscape:window-y="0"
     inkscape:window-maximized="1"
     inkscape:current-layer="Layer_1" />
  <path
     d="m15 20h-10a5.006 5.006 0 0 1 -5-5v-10a5.006 5.006 0 0 1 5-5h10a5.006 5.006 0 0 1 5 5v10a5.006 5.006 0 0 1 -5 5zm-10-18a3 3 0 0 0 -3 3v10a3 3 0 0 0 3 3h10a3 3 0 0 0 3-3v-10a3 3 0 0 0 -3-3zm19 17v-13a1 1 0 0 0 -2 0v13a3 3 0 0 1 -3 3h-13a1 1 0 0 0 0 2h13a5.006 5.006 0 0 0 5-5z"
     id="path1"
     style="fill:#faebd7;fill-opacity:1" />
</svg>
